<?xml version="1.0" encoding="UTF-8" standalone="no"?>
<!DOCTYPE svg PUBLIC "-//W3C//DTD SVG 1.1//EN" "http://www.w3.org/Graphics/SVG/1.1/DTD/svg11.dtd">
<svg width="100%" height="100%" viewBox="0 0 15000 10000" version="1.1" xmlns="http://www.w3.org/2000/svg" xmlns:xlink="http://www.w3.org/1999/xlink" xml:space="preserve" xmlns:serif="http://www.serif.com/" style="fill-rule:evenodd;clip-rule:evenodd;stroke-linecap:round;stroke-miterlimit:1.5;">
    <g transform="matrix(3.125,0,0,3.125,0,0)">
        <rect id="_100007" serif:id="100007" x="335.292" y="2543.95" width="892.755" height="313.231" style="fill:none;stroke:black;stroke-width:2.67px;"/>
        <g id="_100005" serif:id="100005" transform="matrix(0.87878,0,0,3.87844,-15.4978,-1754.35)">
            <rect x="1668.2" y="880.518" width="995.052" height="80.808" style="fill:none;stroke:black;stroke-width:0.95px;stroke-linejoin:round;"/>
        </g>
        <g id="_100003" serif:id="100003" transform="matrix(1,0,0,1,0,-3)">
            <rect x="2530.23" y="751.679" width="878.115" height="360.282" style="fill:none;stroke:black;stroke-width:2.67px;"/>
        </g>
        <g id="_100002" serif:id="100002" transform="matrix(0.994949,0,0,1.0847,11.7099,-63.6699)">
            <rect x="1446.08" y="751.679" width="872.158" height="332.148" style="fill:none;stroke:black;stroke-width:2.56px;"/>
        </g>
        <g id="_100001" serif:id="100001" transform="matrix(0.987662,0,0,0.959118,-1078.17,57.6888)">
            <rect x="1446.08" y="751.679" width="872.158" height="332.148" style="fill:none;stroke:black;stroke-width:2.74px;"/>
        </g>
        <g id="_100004" serif:id="100004" transform="matrix(0.995204,0,0,0.959118,-1089.07,936.735)">
            <rect x="1446.08" y="751.679" width="872.158" height="332.148" style="fill:none;stroke:black;stroke-width:2.73px;"/>
        </g>
        <g id="_100006" serif:id="100006" transform="matrix(0.878026,0,0,3.87844,1078.68,-1754.35)">
            <rect x="1668.2" y="880.518" width="995.052" height="80.808" style="fill:none;stroke:black;stroke-width:0.95px;stroke-linejoin:round;"/>
        </g>
        <g id="_100008" serif:id="100008" transform="matrix(0.87878,0,0,3.83705,-15.4978,-834.643)">
            <rect x="1668.2" y="880.518" width="995.052" height="80.808" style="fill:none;stroke:black;stroke-width:0.96px;stroke-linejoin:round;"/>
        </g>
        <g id="_100009" serif:id="100009" transform="matrix(0.87655,0,0,3.83705,1082.61,-834.643)">
            <rect x="1668.2" y="880.518" width="995.052" height="80.808" style="fill:none;stroke:black;stroke-width:0.96px;stroke-linejoin:round;"/>
        </g>
        <g id="_100010" serif:id="100010" transform="matrix(0.496473,0,0,4.31249,2938.83,-3213.03)">
            <rect x="1668.2" y="880.518" width="995.052" height="80.808" style="fill:none;stroke:black;stroke-width:0.87px;stroke-linejoin:round;"/>
        </g>
        <g id="_100011" serif:id="100011" transform="matrix(0.496473,0,0,4.31955,2938.83,-2706.24)">
            <rect x="1668.2" y="880.518" width="995.052" height="80.808" style="fill:none;stroke:black;stroke-width:0.87px;stroke-linejoin:round;"/>
        </g>
        <g id="_100012" serif:id="100012" transform="matrix(0.496473,0,0,4.44629,2938.83,-2315.04)">
            <rect x="1668.2" y="880.518" width="995.052" height="80.808" style="fill:none;stroke:black;stroke-width:0.84px;stroke-linejoin:round;"/>
        </g>
        <g id="_100013" serif:id="100013" transform="matrix(0.496473,0,0,4.68749,2938.83,-2050.42)">
            <rect x="1668.2" y="880.518" width="995.052" height="80.808" style="fill:none;stroke:black;stroke-width:0.8px;stroke-linejoin:round;"/>
        </g>
        <g id="_100014" serif:id="100014" transform="matrix(0.496473,0,0,4.31249,2938.83,-1207.92)">
            <rect x="1668.2" y="880.518" width="995.052" height="80.808" style="fill:none;stroke:black;stroke-width:0.87px;stroke-linejoin:round;"/>
        </g>
        <path id="_100001R" serif:id="100001R" d="M1305.54,910.348L1304.17,1097.21L787.349,1102.22L788.493,1251.46L1450.49,1251.46L1449.47,912.132L1305.54,910.348Z" style="fill:none;stroke:black;stroke-width:2.67px;"/>
        <g id="_100001L" serif:id="100001L" transform="matrix(1,0,0,0.987681,0,20.4576)">
            <path d="M334.185,1097.21L744.295,1098.07L742.6,1426.82L805.99,1427.67L809.539,1660.68L336.727,1659.39L334.185,1097.21Z" style="fill:none;stroke:black;stroke-width:2.68px;"/>
        </g>
        <path id="_100004R" serif:id="100004R" d="M787.349,1988.38L1204.18,1988.38L1206.73,2057.87L1302.48,2057.87L1301.63,1790.95L1450.49,1792.65L1450.49,2156.16L787.349,2157L787.349,1988.38Z" style="fill:none;stroke:black;stroke-width:2.67px;"/>
        <path id="_100004L" serif:id="100004L" d="M334.185,1996.57L742.624,1999.11L740.929,2316.86L809.539,2316.86L809.539,2543.95L334.185,2542.25L334.185,1996.57Z" style="fill:none;stroke:black;stroke-width:2.67px;"/>
        <path id="_100002L" serif:id="100002L" d="M1430.35,1111.96L1896.38,1115.93L1899.03,1660.68L1427.98,1660.68L1430.35,1111.96Z" style="fill:none;stroke:black;stroke-width:2.67px;"/>
        <path id="_100002R" serif:id="100002R" d="M1899.03,1111.96L2385.66,1111.96L2385.66,901.783L2543.8,900.459L2542.47,1265.87L1899.03,1267.19L1899.03,1111.96Z" style="fill:none;stroke:black;stroke-width:2.67px;"/>
        <path id="_100003L" serif:id="100003L" d="M2530.23,1111.96L2994.94,1111.96L2992.29,1660.68L2530.56,1660.68L2530.23,1111.96Z" style="fill:none;stroke:black;stroke-width:2.67px;"/>
        <path id="_100003R" serif:id="100003R" d="M2994.94,1111.96L3408.34,1111.96L3408.34,1267.19L2994.94,1267.19L2994.94,1111.96" style="fill:none;stroke:black;stroke-width:2.67px;"/>
        <path id="_100007R" serif:id="100007R" d="M787.349,2855.91L1294.56,2855.06L1296.25,2676.27L1450.49,2676.27L1447.08,3008.43L787.349,3009.28L787.349,2855.91Z" style="fill:none;stroke:black;stroke-width:2.67px;"/>
        <path id="_100007L" serif:id="100007L" d="M336.139,2857.18L765.204,2860.48L765.318,3146.28L2269.51,3151.44L2269.51,3200L335.292,3200L336.139,2857.18Z" style="fill:none;stroke:black;stroke-width:2.67px;"/>
        <path id="_100006R" serif:id="100006R" d="M1887.7,1996.57L2385.66,1996.57L2385.66,1787.96L2543.41,1788.19L2542.09,2158.9L1887.7,2160.22L1887.7,1996.57Z" style="fill:none;stroke:black;stroke-width:2.67px;"/>
        <path id="_100005L" serif:id="100005L" d="M1450.49,1996.57L1848.68,1996.57L1847,2144.28L1630.49,2143.22L1632.61,2361.41L1900.58,2362.47L1904.82,2543.95L1450.49,2543.95L1450.49,1996.57Z" style="fill:none;stroke:black;stroke-width:2.67px;"/>
        <path id="_100006L" serif:id="100006L" d="M2530.23,1996.68L2946.38,1995.83L2947.23,2153.43L2530.23,2155.97L2530.23,1996.68Z" style="fill:none;stroke:black;stroke-width:2.67px;"/>
        <path id="_100005R" serif:id="100005R" d="M2994.94,1988.2L3401.82,1985.03L3405.23,2164.45L2994.94,2165.45L2994.94,1988.2Z" style="fill:none;stroke:black;stroke-width:2.67px;"/>
        <rect id="_100009R" serif:id="100009R" x="2994.94" y="2854.01" width="410.291" height="149.082" style="fill:none;stroke:black;stroke-width:2.67px;"/>
        <g id="_100009L" serif:id="100009L" transform="matrix(1,0,0,1,0,1)">
            <path d="M2530.23,2864.13L2947.23,2864.98L2947.23,3017.5L2530.23,3017.5L2530.23,2864.13Z" style="fill:none;stroke:black;stroke-width:2.67px;"/>
        </g>
        <path id="_100008L" serif:id="100008L" d="M1443.97,2864.13L1853.99,2864.13L1852.34,3073.63L4007.08,3076.94L4007.08,3115L1450.49,3111.79L1443.97,2864.13Z" style="fill:none;"/>
        <g id="_100008R" serif:id="100008R" transform="matrix(1,0,0,1,0,1)">
            <path d="M1880.25,2864.13L2360.45,2864.13L2360.18,2636.74L2544.88,2637.54L2544.88,2843.12L2530.23,2843.11L2530.23,3021.4L1880.21,3021.84L1880.25,2864.13Z" style="fill:none;stroke:black;stroke-width:2.67px;"/>
        </g>
    </g>
</svg>
